<svg xmlns="http://www.w3.org/2000/svg" xmlns:xlink="http://www.w3.org/1999/xlink" width="53.228" height="53.228" viewBox="0 0 53.228 53.228"><defs><clipPath id="a"><rect width="53.228" height="53.228" transform="translate(0 0)" fill="none"/></clipPath></defs><g transform="translate(0 0)"><g clip-path="url(#a)"><path d="M53.228,26.614A26.614,26.614,0,1,1,26.614,0,26.614,26.614,0,0,1,53.228,26.614" fill="#149bd7"/><path d="M21.9,45.081h0a6.9,6.9,0,0,1-6.9-6.9V10.259H30.83a12.939,12.939,0,0,1,9.119,3.212,11.282,11.282,0,0,1,3.4,8.552A11.287,11.287,0,0,1,39.9,30.67a12.927,12.927,0,0,1-9.072,3.166H21.9Zm8.694-17.86a6.378,6.378,0,0,0,4.489-1.37A4.918,4.918,0,0,0,36.5,22.07a4.916,4.916,0,0,0-1.417-3.779,6.374,6.374,0,0,0-4.489-1.371H21.9v10.3Z" fill="#fff"/></g></g></svg>